<?xml version="1.0" encoding="UTF-8"?>
<svg id="Layer_1" xmlns="http://www.w3.org/2000/svg" version="1.1" xmlns:xlink="http://www.w3.org/1999/xlink" viewBox="0 0 874.7 868.6">
  <!-- Generator: Adobe Illustrator 29.1.0, SVG Export Plug-In . SVG Version: 2.1.0 Build 142)  -->
  <defs>
    <style>
      .st0 {
        fill: #b6852b;
      }

      .st1 {
        fill: #fff;
      }

      .st2 {
        stroke: #fff;
      }

      .st2, .st3, .st4 {
        fill: none;
        stroke-miterlimit: 10;
      }

      .st3 {
        stroke: url(#linear-gradient1);
        stroke-width: 39px;
      }

      .st5 {
        fill: #f173ac;
      }

      .st4 {
        stroke: url(#linear-gradient);
        stroke-width: 29px;
      }

      .st6 {
        fill: #00afad;
      }

      .st7 {
        fill: url(#linear-gradient2);
        filter: url(#drop-shadow-1);
      }
    </style>
    <linearGradient id="linear-gradient" x1="97.7" y1="441.6" x2="800" y2="441.6" gradientUnits="userSpaceOnUse">
      <stop offset="0" stop-color="#885b0b"/>
      <stop offset="0" stop-color="#906309"/>
      <stop offset=".2" stop-color="#a87b04"/>
      <stop offset=".2" stop-color="#bd9000"/>
      <stop offset=".7" stop-color="#cbc04e"/>
      <stop offset=".8" stop-color="#b99933"/>
      <stop offset="1" stop-color="#885b0b"/>
    </linearGradient>
    <linearGradient id="linear-gradient1" x1="211.2" y1="679.2" x2="686.4" y2="204" gradientUnits="userSpaceOnUse">
      <stop offset="0" stop-color="#bb862a"/>
      <stop offset="0" stop-color="#c38d24"/>
      <stop offset=".2" stop-color="#dba314"/>
      <stop offset=".2" stop-color="#f0b706"/>
      <stop offset=".7" stop-color="#fef387"/>
      <stop offset=".8" stop-color="#eccb64"/>
      <stop offset="1" stop-color="#bb862a"/>
    </linearGradient>
    <linearGradient id="linear-gradient2" x1="390.7" y1="144" x2="496.6" y2="144" xlink:href="#linear-gradient1"/>
    <filter id="drop-shadow-1" x="339.3" y="18.9" width="209" height="250" filterUnits="userSpaceOnUse">
      <feOffset dx="0" dy="0"/>
      <feGaussianBlur result="blur" stdDeviation="17"/>
      <feFlood flood-color="#000" flood-opacity=".8"/>
      <feComposite in2="blur" operator="in"/>
      <feComposite in="SourceGraphic"/>
    </filter>
  </defs>
  <g>
    <g id="_x3C_Radial_Repeat_x3E_">
      <path class="st1" d="M535.8,729h.5c0-.1-84.4-290-84.4-290l-71.9,293.2c49.7,12.3,103.1,12,155.8-3.2Z"/>
    </g>
    <g id="_x3C_Radial_Repeat_x3E_1" data-name="_x3C_Radial_Repeat_x3E_">
      <path class="st5" d="M379.5,732.1h.5c0,.1,71.9-293.1,71.9-293.1l-208.8,218c36.9,35.4,83.3,62,136.5,75.2Z"/>
    </g>
    <g id="_x3C_Radial_Repeat_x3E_2" data-name="_x3C_Radial_Repeat_x3E_">
      <path class="st1" d="M242.7,656.6l.3.3,208.9-218-289.8,84.4c14.2,49.1,41.1,95.3,80.6,133.3Z"/>
    </g>
    <g id="_x3C_Radial_Repeat_x3E_3" data-name="_x3C_Radial_Repeat_x3E_">
      <path class="st6" d="M161.9,522.9v.5c.1,0,290-84.4,290-84.4l-293.2-71.9c-12.3,49.7-12,103.1,3.2,155.8Z"/>
    </g>
    <g id="_x3C_Radial_Repeat_x3E_4" data-name="_x3C_Radial_Repeat_x3E_">
      <path class="st1" d="M158.8,366.6v.5c-.1,0,293.1,71.9,293.1,71.9l-218-208.8c-35.4,36.9-62,83.3-75.2,136.5Z"/>
    </g>
    <g id="_x3C_Radial_Repeat_x3E_5" data-name="_x3C_Radial_Repeat_x3E_">
      <path class="st5" d="M234.2,229.8l-.3.3,218,208.9-84.4-289.8c-49.1,14.2-95.3,41.1-133.3,80.6Z"/>
    </g>
    <g id="_x3C_Radial_Repeat_x3E_6" data-name="_x3C_Radial_Repeat_x3E_">
      <path class="st1" d="M368,149h-.5c0,.1,84.4,290,84.4,290l71.9-293.2c-49.7-12.3-103.1-12-155.8,3.2Z"/>
    </g>
    <g id="_x3C_Radial_Repeat_x3E_7" data-name="_x3C_Radial_Repeat_x3E_">
      <path class="st6" d="M524.2,145.9h-.5c0-.1-71.9,293.1-71.9,293.1l208.8-218c-36.9-35.4-83.3-62-136.5-75.2Z"/>
    </g>
    <g id="_x3C_Radial_Repeat_x3E_8" data-name="_x3C_Radial_Repeat_x3E_">
      <path class="st1" d="M661.1,221.3l-.3-.3-208.9,218,289.8-84.4c-14.2-49.1-41.1-95.3-80.6-133.3Z"/>
    </g>
    <g id="_x3C_Radial_Repeat_x3E_9" data-name="_x3C_Radial_Repeat_x3E_">
      <path class="st5" d="M741.9,355.1v-.5c-.1,0-290,84.4-290,84.4l293.2,71.9c12.3-49.7,12-103.1-3.2-155.8Z"/>
    </g>
    <g id="_x3C_Radial_Repeat_x3E_10" data-name="_x3C_Radial_Repeat_x3E_">
      <path class="st1" d="M745,511.3v-.5c.1,0-293.1-71.9-293.1-71.9l218,208.8c35.4-36.9,62-83.3,75.2-136.5Z"/>
    </g>
    <g id="_x3C_Radial_Repeat_x3E_11" data-name="_x3C_Radial_Repeat_x3E_">
      <path class="st6" d="M669.5,648.2l.3-.3-218-208.9,84.4,289.8c49.1-14.2,95.3-41.1,133.3-80.6Z"/>
    </g>
  </g>
  <g id="shadow">
    <image width="1785" height="1785" transform="translate(-443.6 -451.1)" xlink:href="گردونه copy-1.png"/>
  </g>
  <g>
    <circle class="st4" cx="448.8" cy="441.6" r="336.6"/>
    <circle class="st3" cx="448.8" cy="441.6" r="316.5"/>
  </g>
  <g id="light_off">
    <g>
      <circle class="st0" cx="693.1" cy="196.8" r="10.7"/>
      <circle class="st2" cx="703.6" cy="187.1" r="17.9"/>
      <circle class="st1" cx="703.5" cy="178.3" r="4.1"/>
      <circle class="st1" cx="708.9" cy="179.4" r="1.9"/>
    </g>
    <g>
      <circle class="st0" cx="769.3" cy="309.4" r="10.7"/>
      <circle class="st2" cx="782.2" cy="303.1" r="17.9"/>
      <circle class="st1" cx="784.7" cy="294.6" r="4.1"/>
      <circle class="st1" cx="789.5" cy="297.2" r="1.9"/>
    </g>
    <g>
      <circle class="st0" cx="801.6" cy="439.8" r="10.7"/>
      <circle class="st2" cx="815.9" cy="439.5" r="17.9"/>
      <circle class="st1" cx="821.7" cy="432.7" r="4.1"/>
      <circle class="st1" cx="825.1" cy="437.1" r="1.9"/>
    </g>
    <g>
      <circle class="st0" cx="774.5" cy="577.6" r="10.7"/>
      <circle class="st2" cx="788.5" cy="580.6" r="17.9"/>
      <circle class="st1" cx="795.6" cy="575.3" r="4.1"/>
      <circle class="st1" cx="797.9" cy="580.4" r="1.9"/>
    </g>
    <g>
      <circle class="st0" cx="697.1" cy="687.2" r="10.7"/>
      <circle class="st2" cx="707.8" cy="696.8" r="17.9"/>
      <circle class="st1" cx="716.6" cy="695.9" r="4.1"/>
      <circle class="st1" cx="716" cy="701.4" r="1.9"/>
    </g>
    <g>
      <circle class="st0" cx="582.7" cy="762.1" r="10.7"/>
      <circle class="st2" cx="588.8" cy="775" r="17.9"/>
      <circle class="st1" cx="597.3" cy="777.5" r="4.1"/>
      <circle class="st1" cx="594.7" cy="782.3" r="1.9"/>
    </g>
    <g>
      <circle class="st0" cx="451.5" cy="787.1" r="10.7"/>
      <circle class="st2" cx="450.9" cy="801.4" r="17.9"/>
      <circle class="st1" cx="457.2" cy="807.6" r="4.1"/>
      <circle class="st1" cx="452.6" cy="810.6" r="1.9"/>
    </g>
    <g>
      <circle class="st0" cx="318.4" cy="762.6" r="10.7"/>
      <circle class="st2" cx="311.8" cy="775.3" r="17.9"/>
      <circle class="st1" cx="315" cy="783.6" r="4.1"/>
      <circle class="st1" cx="309.5" cy="784.4" r="1.9"/>
    </g>
    <g>
      <circle class="st0" cx="204.3" cy="691.7" r="10.7"/>
      <circle class="st2" cx="193.8" cy="701.5" r="17.9"/>
      <circle class="st1" cx="193.9" cy="710.4" r="4.1"/>
      <circle class="st1" cx="188.5" cy="709.3" r="1.9"/>
    </g>
    <g>
      <circle class="st0" cx="125.7" cy="575.1" r="10.7"/>
      <circle class="st2" cx="112.4" cy="580.5" r="17.9"/>
      <circle class="st1" cx="109.4" cy="588.9" r="4.1"/>
      <circle class="st1" cx="104.7" cy="586" r="1.9"/>
    </g>
    <g>
      <circle class="st0" cx="98.5" cy="439.2" r="10.7"/>
      <circle class="st2" cx="84.2" cy="440" r="17.9"/>
      <circle class="st1" cx="78.6" cy="447" r="4.1"/>
      <circle class="st1" cx="75.2" cy="442.7" r="1.9"/>
    </g>
    <g>
      <circle class="st0" cx="127.7" cy="302.4" r="10.7"/>
      <circle class="st2" cx="114.1" cy="297.9" r="17.9"/>
      <circle class="st1" cx="106.4" cy="302.3" r="4.1"/>
      <circle class="st1" cx="104.7" cy="297.1" r="1.9"/>
    </g>
    <g>
      <circle class="st0" cx="202.1" cy="192.4" r="10.7"/>
      <circle class="st2" cx="192.3" cy="181.9" r="17.9"/>
      <circle class="st1" cx="183.4" cy="182.1" r="4.1"/>
      <circle class="st1" cx="184.5" cy="176.7" r="1.9"/>
    </g>
    <g>
      <circle class="st0" cx="316.2" cy="117.8" r="10.7"/>
      <circle class="st2" cx="310.4" cy="104.7" r="17.9"/>
      <circle class="st1" cx="302" cy="102" r="4.1"/>
      <circle class="st1" cx="304.8" cy="97.2" r="1.9"/>
    </g>
    <g>
      <circle class="st0" cx="585.1" cy="119.4" r="10.7"/>
      <circle class="st2" cx="590.8" cy="106.3" r="17.9"/>
      <circle class="st1" cx="599.3" cy="103.5" r="4.1"/>
      <circle class="st1" cx="596.5" cy="98.8" r="1.9"/>
    </g>
  </g>
  <g id="light">
    <g>
      <circle class="st0" cx="585.5" cy="119.7" r="10.7"/>
      <image width="1237" height="1237" transform="translate(-27.6 -512.1)" xlink:href="گردونه copy-2.png"/>
      <image width="1237" height="1237" transform="translate(-27.6 -512.1)" xlink:href="گردونه copy-3.png"/>
      <circle class="st1" cx="591" cy="106.5" r="17.9"/>
    </g>
    <g>
      <circle class="st0" cx="769.3" cy="309.7" r="10.7"/>
      <image width="1237" height="1237" transform="translate(163.4 -315.1)" xlink:href="گردونه copy-4.png"/>
      <image width="1237" height="1237" transform="translate(163.4 -315.1)" xlink:href="گردونه copy-5.png"/>
      <circle class="st1" cx="782.1" cy="303.3" r="17.9"/>
    </g>
    <g>
      <circle class="st0" cx="774.7" cy="577.6" r="10.7"/>
      <image width="1237" height="1237" transform="translate(170.4 -37.1)" xlink:href="گردونه copy-6.png"/>
      <image width="1237" height="1237" transform="translate(170.4 -37.1)" xlink:href="گردونه copy-7.png"/>
      <circle class="st1" cx="788.5" cy="581.2" r="17.9"/>
    </g>
    <g>
      <circle class="st0" cx="582.7" cy="762.4" r="10.7"/>
      <image width="1237" height="1237" transform="translate(-29.6 156.9)" xlink:href="گردونه copy-8.png"/>
      <image width="1237" height="1237" transform="translate(-29.6 156.9)" xlink:href="گردونه copy-9.png"/>
      <circle class="st1" cx="588.9" cy="775.3" r="17.9"/>
    </g>
    <g>
      <circle class="st0" cx="318.9" cy="762.9" r="10.7"/>
      <image width="1237" height="1237" transform="translate(-306.6 156.9)" xlink:href="گردونه copy-10.png"/>
      <image width="1237" height="1237" transform="translate(-306.6 156.9)" xlink:href="گردونه copy-11.png"/>
      <circle class="st1" cx="312" cy="775.4" r="17.9"/>
    </g>
    <g>
      <circle class="st0" cx="125.6" cy="575.4" r="10.7"/>
      <image width="1237" height="1237" transform="translate(-506.6 -38.1)" xlink:href="گردونه copy-12.png"/>
      <image width="1237" height="1237" transform="translate(-506.6 -38.1)" xlink:href="گردونه copy-13.png"/>
      <circle class="st1" cx="112.2" cy="580.5" r="17.9"/>
    </g>
    <g>
      <circle class="st0" cx="127.7" cy="302.7" r="10.7"/>
      <image width="1237" height="1237" transform="translate(-504.6 -320.1)" xlink:href="گردونه copy-14.png"/>
      <image width="1237" height="1237" transform="translate(-504.6 -320.1)" xlink:href="گردونه copy-15.png"/>
      <circle class="st1" cx="114.1" cy="298.3" r="17.9"/>
    </g>
    <g>
      <circle class="st0" cx="316.3" cy="118.2" r="10.7"/>
      <image width="1237" height="1236" transform="translate(-307.6 -513.1)" xlink:href="گردونه copy-16.png"/>
      <image width="1237" height="1236" transform="translate(-307.6 -513.1)" xlink:href="گردونه copy-17.png"/>
      <circle class="st1" cx="310.9" cy="104.9" r="17.9"/>
    </g>
  </g>
  <g id="light1" data-name="light">
    <g>
      <circle class="st0" cx="692.7" cy="196.3" r="10.7"/>
      <image width="1237" height="1237" transform="translate(85.4 -431.1)" xlink:href="گردونه copy-18.png"/>
      <image width="1237" height="1237" transform="translate(85.4 -431.1)" xlink:href="گردونه copy-19.png"/>
      <circle class="st1" cx="703.6" cy="187.1" r="17.9"/>
    </g>
    <g>
      <circle class="st0" cx="801.2" cy="439.1" r="10.7"/>
      <image width="1237" height="1237" transform="translate(197.4 -179.1)" xlink:href="گردونه copy-20.png"/>
      <image width="1237" height="1237" transform="translate(197.4 -179.1)" xlink:href="گردونه copy-21.png"/>
      <circle class="st1" cx="815.5" cy="439.3" r="17.9"/>
    </g>
    <g>
      <circle class="st0" cx="696.7" cy="686.8" r="10.7"/>
      <image width="1237" height="1237" transform="translate(88.4 77.9)" xlink:href="گردونه copy-22.png"/>
      <image width="1237" height="1237" transform="translate(88.4 77.9)" xlink:href="گردونه copy-23.png"/>
      <circle class="st1" cx="707.2" cy="696.5" r="17.9"/>
    </g>
    <g>
      <circle class="st0" cx="451.1" cy="786.6" r="10.7"/>
      <image width="1237" height="1236" transform="translate(-167.6 182.9)" xlink:href="گردونه copy-24.png"/>
      <image width="1237" height="1236" transform="translate(-167.6 182.9)" xlink:href="گردونه copy-25.png"/>
      <circle class="st1" cx="450.8" cy="800.9" r="17.9"/>
    </g>
    <g>
      <circle class="st0" cx="203.3" cy="691.1" r="10.7"/>
      <image width="1236" height="1237" transform="translate(-424.6 82.9)" xlink:href="گردونه copy-26.png"/>
      <image width="1236" height="1237" transform="translate(-424.6 82.9)" xlink:href="گردونه copy-27.png"/>
      <circle class="st1" cx="193.4" cy="701.4" r="17.9"/>
    </g>
    <g>
      <circle class="st0" cx="97.9" cy="438.9" r="10.7"/>
      <image width="1237" height="1236" transform="translate(-534.6 -178.1)" xlink:href="گردونه copy-28.png"/>
      <image width="1237" height="1236" transform="translate(-534.6 -178.1)" xlink:href="گردونه copy-29.png"/>
      <circle class="st1" cx="83.6" cy="440" r="17.9"/>
    </g>
    <g>
      <circle class="st0" cx="201.9" cy="191.7" r="10.7"/>
      <image width="1237" height="1237" transform="translate(-426.6 -437.1)" xlink:href="گردونه copy-30.png"/>
      <image width="1237" height="1237" transform="translate(-426.6 -437.1)" xlink:href="گردونه copy-31.png"/>
      <circle class="st1" cx="191.9" cy="181.4" r="17.9"/>
    </g>
  </g>
  <path class="st7" d="M496.6,70.7h0s-13.1,27.1-13.1,27.1c-13.1,26.9-23.4,55.1-30.8,84.1l-9.1,35.5-9.1-35.5c-7.4-29-17.7-57.1-30.8-84.1l-13.1-27.1h0c34.9,7.6,71.1,7.6,106,0Z"/>
</svg>